<?xml version="1.0" encoding="UTF-8"?>
<!DOCTYPE svg PUBLIC "-//W3C//DTD SVG 1.1//EN" "http://www.w3.org/Graphics/SVG/1.1/DTD/svg11.dtd">
<!-- Creator: CorelDRAW X7 -->
<svg xmlns="http://www.w3.org/2000/svg" xml:space="preserve" width="0.999992in" height="0.243331in" version="1.1" style="shape-rendering:geometricPrecision; text-rendering:geometricPrecision; image-rendering:optimizeQuality; fill-rule:evenodd; clip-rule:evenodd"
viewBox="0 0 99999 24333"
 xmlns:xlink="http://www.w3.org/1999/xlink">
 <defs>
  <style type="text/css">
   <![CDATA[
    .fil3 {fill:#FEFEFE}
    .fil1 {fill:#E5097F}
    .fil0 {fill:#3E3181}
    .fil2 {fill:url(#id0)}
   ]]>
  </style>
  <linearGradient id="id0" gradientUnits="userSpaceOnUse" x1="17884.6" y1="22290.9" x2="6494.88" y2="2042.13">
   <stop offset="0" style="stop-opacity:1; stop-color:#000066"/>
   <stop offset="0.368627" style="stop-opacity:1; stop-color:#403182"/>
   <stop offset="1" style="stop-opacity:1; stop-color:#E5097F"/>
  </linearGradient>
 </defs>
 <g id="Layer_x0020_1">
  <metadata id="CorelCorpID_0Corel-Layer"/>
  <g id="_725777744">
   <path class="fil0" d="M29306 8513l311 0 0 -1703c0,-457 11,-814 35,-1073 25,-262 92,-485 202,-669 110,-195 269,-354 478,-475 205,-120 436,-180 694,-180 358,0 680,135 971,404 194,180 314,400 368,662 53,258 78,627 78,1104l0 1930 1037 0c400,0 709,96 917,283 213,192 319,436 319,730 0,382 -152,648 -453,800 -301,153 -730,227 -1293,227l-527 0 0 5205c0,443 14,786 46,1023 31,238 113,432 248,581 138,149 357,223 662,223 163,0 389,-28 673,-89 283,-56 506,-88 662,-88 230,0 435,92 620,276 183,185 272,411 272,680 0,457 -248,804 -744,1045 -499,244 -1214,365 -2149,365 -885,0 -1554,-149 -2008,-447 -456,-297 -754,-708 -895,-1236 -142,-524 -213,-1225 -213,-2103l0 -5435 -372 0c-411,0 -722,-96 -934,-290 -217,-192 -323,-440 -323,-737 0,-294 114,-538 337,-730 226,-187 552,-283 981,-283z"/>
   <path class="fil0" d="M44041 14717l-5542 0c7,644 138,1211 390,1703 251,493 587,861 1005,1109 418,251 882,375 1385,375 340,0 648,-39 927,-121 283,-77 553,-201 815,-372 265,-169 506,-350 726,-545 223,-194 510,-457 864,-789 145,-124 350,-188 619,-188 291,0 528,81 709,241 176,156 269,382 269,672 0,255 -103,553 -301,896 -202,340 -503,670 -911,982 -403,314 -909,576 -1522,782 -613,209 -1317,312 -2110,312 -1821,0 -3233,-521 -4242,-1559 -1009,-1037 -1513,-2443 -1513,-4221 0,-835 124,-1614 372,-2329 248,-715 613,-1328 1088,-1842 477,-510 1065,-903 1763,-1175 698,-273 1473,-411 2323,-411 1108,0 2057,233 2847,701 793,468 1384,1069 1781,1813 393,740 591,1494 591,2263 0,712 -205,1175 -613,1388 -407,209 -980,315 -1720,315zm-5542 -1615l5134 0c-67,-966 -329,-1689 -782,-2171 -453,-477 -1048,-718 -1788,-718 -709,0 -1286,244 -1739,729 -454,489 -730,1208 -825,2160z"/>
   <path class="fil0" d="M48234 18053l0 -12280c0,-567 128,-995 379,-1286 252,-290 592,-435 1020,-435 425,0 772,145 1034,432 262,286 393,715 393,1289l0 12280c0,573 -134,1002 -400,1288 -266,287 -609,433 -1027,433 -414,0 -751,-149 -1009,-447 -259,-297 -390,-722 -390,-1274z"/>
   <path class="fil0" d="M65211 14957c0,918 -237,1743 -711,2476 -472,733 -1165,1307 -2079,1721 -914,414 -1997,620 -3247,620 -1502,0 -2741,-284 -3715,-847 -690,-407 -1250,-952 -1681,-1632 -432,-680 -648,-1342 -648,-1987 0,-371 130,-690 389,-960 259,-265 588,-396 988,-396 326,0 598,103 821,312 227,205 418,513 578,924 191,482 403,889 626,1211 227,326 542,595 949,807 411,209 946,316 1612,316 909,0 1653,-213 2223,-638 570,-425 857,-956 857,-1593 0,-507 -152,-917 -460,-1229 -308,-315 -708,-556 -1197,-722 -485,-167 -1140,-344 -1955,-531 -1090,-255 -2007,-557 -2740,-896 -737,-344 -1321,-811 -1753,-1403 -432,-591 -648,-1324 -648,-2206 0,-835 226,-1579 684,-2230 456,-648 1118,-1148 1982,-1498 864,-351 1880,-524 3049,-524 931,0 1739,117 2422,347 680,233 1246,542 1696,924 446,383 775,786 984,1207 206,422 312,836 312,1236 0,365 -131,698 -390,991 -258,295 -584,440 -970,440 -354,0 -619,-89 -804,-262 -184,-178 -382,-468 -594,-868 -280,-574 -610,-1023 -999,-1345 -386,-323 -1009,-482 -1870,-482 -792,0 -1437,173 -1922,524 -489,351 -733,768 -733,1261 0,304 81,566 248,789 166,220 396,411 687,570 290,160 584,284 881,375 298,89 790,220 1473,394 857,202 1636,421 2330,666 694,240 1286,534 1774,881 489,344 868,783 1140,1310 273,531 411,1179 411,1947z"/>
   <path class="fil0" d="M69717 9852l0 343c531,-658 1087,-1143 1660,-1452 574,-308 1222,-463 1948,-463 875,0 1675,223 2408,672 733,450 1313,1109 1739,1972 424,865 637,1888 637,3070 0,872 -124,1672 -368,2401 -245,730 -585,1342 -1013,1838 -429,496 -935,875 -1519,1140 -585,266 -1211,401 -1884,401 -807,0 -1487,-163 -2036,-489 -549,-322 -1073,-800 -1572,-1431l0 4257c0,1246 -454,1869 -1360,1869 -531,0 -885,-159 -1059,-482 -173,-322 -258,-789 -258,-1405l0 -12227c0,-538 117,-942 354,-1208 234,-265 556,-400 963,-400 400,0 730,138 981,411 251,276 379,669 379,1183zm5545 4118c0,-747 -114,-1388 -344,-1923 -226,-534 -542,-949 -945,-1236 -407,-287 -853,-428 -1342,-428 -783,0 -1441,308 -1976,921 -535,616 -804,1522 -804,2715 0,1126 266,2005 797,2628 535,627 1193,938 1983,938 467,0 903,-138 1303,-411 400,-272 722,-680 967,-1225 240,-549 361,-1207 361,-1979z"/>
   <path class="fil0" d="M92980 14717l-5541 0c6,644 137,1211 389,1703 251,493 588,861 1005,1109 419,251 882,375 1385,375 340,0 648,-39 928,-121 283,-77 552,-201 814,-372 266,-169 507,-350 726,-545 223,-194 510,-457 864,-789 145,-124 351,-188 620,-188 290,0 527,81 708,241 177,156 269,382 269,672 0,255 -103,553 -301,896 -202,340 -503,670 -910,982 -404,314 -910,576 -1523,782 -612,209 -1317,312 -2110,312 -1820,0 -3233,-521 -4242,-1559 -1009,-1037 -1512,-2443 -1512,-4221 0,-835 124,-1614 372,-2329 248,-715 612,-1328 1087,-1842 478,-510 1066,-903 1763,-1175 698,-273 1473,-411 2323,-411 1108,0 2058,233 2847,701 793,468 1385,1069 1781,1813 393,740 591,1494 591,2263 0,712 -205,1175 -612,1388 -407,209 -981,315 -1721,315zm-5541 -1615l5134 0c-67,-966 -330,-1689 -783,-2171 -453,-477 -1048,-718 -1788,-718 -708,0 -1285,244 -1739,729 -453,489 -729,1208 -824,2160z"/>
   <path class="fil0" d="M97174 18053l0 -12280c0,-567 127,-995 379,-1286 251,-290 591,-435 1019,-435 425,0 772,145 1034,432 263,286 394,715 394,1289l0 12280c0,573 -135,1002 -401,1288 -265,287 -609,433 -1027,433 -414,0 -750,-149 -1009,-447 -258,-297 -389,-722 -389,-1274z"/>
   <path class="fil0" d="M82682 9719l0 8263c0,572 -136,1005 -407,1298 -272,293 -615,439 -1033,439 -418,0 -758,-150 -1019,-450 -261,-300 -393,-729 -393,-1287l0 -8177c0,-245 25,-463 73,-655 68,111 152,210 253,296 309,267 681,400 1116,400 422,0 782,-137 1088,-407 100,-89 183,-189 251,-300 47,174 71,368 71,580z"/>
   <path class="fil1" d="M81271 8938c-412,0 -765,-126 -1058,-378 -293,-253 -438,-613 -438,-1077 0,-415 149,-761 449,-1031 301,-272 650,-409 1047,-409 386,0 723,123 1021,368 297,248 445,605 445,1072 0,457 -145,813 -434,1069 -290,256 -631,386 -1032,386z"/>
   <path class="fil2" d="M12086 -17c6790,0 12294,5505 12294,12295 0,6789 -5504,12071 -12294,12071 -2694,0 -5575,-162 -8512,-162 -1900,0 -3455,-1555 -3455,-3454 0,-2888 -119,-5771 -119,-8470 0,-6790 5296,-12280 12086,-12280z"/>
   <path class="fil3" d="M14875 18085c482,-37 794,-180 1221,-452 660,-420 1034,-1420 954,-2185 -79,-752 -584,-1369 -1211,-1750 -235,-142 -542,-247 -812,-291 -205,-33 -330,20 -662,-56 -147,-34 -360,-166 -460,-277 -333,-371 -338,-670 -259,-1123 37,-210 209,-453 385,-557 512,-302 820,-152 1344,-307 514,-152 975,-502 1280,-947 128,-187 225,-401 302,-612l43 -129c54,-227 49,-468 50,-710 1,-175 -19,-312 -63,-453 -61,-197 -139,-355 -228,-538 -283,-437 -568,-755 -1045,-982 -416,-199 -592,-253 -1035,-265l-6839 0c-207,13 -357,29 -430,49l-101 30c-742,146 -1413,774 -1708,1462 -63,146 -82,266 -123,422 -143,542 60,1226 345,1690 345,563 902,882 1523,1035 363,90 1084,7 1519,39 41,286 11,5170 11,5844 0,309 -21,496 106,732 162,300 549,436 859,268 105,-57 158,-116 223,-191 158,-179 167,-432 166,-655l0 -5840c0,-350 70,-808 -117,-1121 -48,-79 -130,-160 -200,-219 -72,-61 -49,-41 -140,-72l-133 -41c-183,-61 -1036,-25 -1261,-25 -505,0 -1001,105 -1360,-310 -47,-54 -148,-193 -176,-264 -119,-301 -102,-788 86,-1039 199,-266 436,-442 793,-442l7088 -1c110,0 178,12 279,59l205 102c114,79 237,199 301,314 136,248 153,405 145,697 -4,139 -59,243 -116,354l-22 44c-72,139 -217,272 -363,359 -228,137 -621,127 -912,169 -225,2 -736,211 -906,330 -18,13 -45,35 -62,46 -943,610 -1109,1521 -1023,2521 55,271 114,409 227,610 385,593 546,816 1201,1100 292,105 708,213 1023,209 665,-9 1117,742 916,1347 -102,306 -416,646 -754,704 -216,36 -1341,5 -1649,5 -308,0 -487,-9 -709,132 -552,348 -230,1176 292,1182 663,8 1329,-3 1992,-1z"/>
  </g>
 </g>
</svg>
