<?xml version="1.0" encoding="UTF-8"?>
<!DOCTYPE svg PUBLIC "-//W3C//DTD SVG 1.1//EN" "http://www.w3.org/Graphics/SVG/1.1/DTD/svg11.dtd">
<!-- Creator: CorelDRAW X7 -->
<svg xmlns="http://www.w3.org/2000/svg" xml:space="preserve" width="0.499992in" height="0.186661in" version="1.1" style="shape-rendering:geometricPrecision; text-rendering:geometricPrecision; image-rendering:optimizeQuality; fill-rule:evenodd; clip-rule:evenodd"
viewBox="0 0 500 187"
 xmlns:xlink="http://www.w3.org/1999/xlink">
 <defs>
  <style type="text/css">
   <![CDATA[
    .fil0 {fill:#848688}
    .fil2 {fill:#EC268F}
    .fil1 {fill:#413D8E}
   ]]>
  </style>
 </defs>
 <g id="Layer_x0020_1">
  <metadata id="CorelCorpID_0Corel-Layer"/>
  <g id="_2084015780576">
   <path class="fil0" d="M35 140l0 -39 37 0 0 39 19 0 0 -93 -19 0 0 37 -37 0 0 -37 -19 0 0 93 19 0zm198 0c22,0 33,-9 33,-24l0 -4c0,-10 -5,-17 -14,-21 8,-3 11,-9 11,-18l0 -3c0,-15 -11,-23 -33,-23l-37 0 0 93 40 0zm-22 -78l17 0c12,0 16,4 16,10l0 2c0,8 -4,11 -15,11l-18 0 0 -23zm0 63l0 -25 19 0c11,0 17,4 17,12l0 2c0,7 -4,11 -16,11l-20 0zm-87 -45c0,-12 6,-18 18,-18 12,0 18,6 18,18l0 15 -36 0 0 -15zm55 60l0 -61c0,-21 -12,-34 -37,-34 -25,0 -37,13 -37,34l0 61 19 0 0 -28 36 0 0 28 19 0z"/>
   <path class="fil0" d="M448 45c-24,0 -37,13 -37,34l0 29c0,21 12,34 37,34 24,0 36,-13 36,-34l0 -5 -19 0 0 5c0,11 -6,17 -17,17 -12,0 -18,-6 -18,-18l0 -26c0,-13 6,-19 18,-19 11,0 17,6 17,17l0 5 19 0 0 -5c0,-21 -12,-34 -36,-34zm-96 95l0 -77 19 0 0 -16 -58 0 0 16 20 0 0 77 19 0zm47 0l0 -93 -19 0 0 93 19 0z"/>
   <g>
    <path class="fil1" d="M301 71l0 58c0,4 -1,7 -3,9 -2,2 -4,3 -7,3 -3,0 -5,-1 -7,-3 -2,-2 -3,-5 -3,-9l0 -58c0,-1 0,-3 1,-4 0,1 1,1 2,2 2,2 4,3 7,3 3,0 6,-1 8,-3 1,-1 1,-2 2,-2 0,1 0,2 0,4z"/>
    <path class="fil2" d="M291 65c-3,0 -5,-1 -7,-2 -2,-2 -3,-5 -3,-8 0,-3 1,-5 3,-7 2,-2 5,-3 7,-3 3,0 5,1 8,3 2,1 3,4 3,7 0,3 -1,6 -3,8 -2,1 -5,2 -8,2z"/>
   </g>
  </g>
 </g>
</svg>
